<svg xmlns="http://www.w3.org/2000/svg" viewBox="0 0 154.9 150"><defs><style>.cls-1{fill:#f7f1e3;}</style></defs><g id="Capa_2" data-name="Capa 2"><g id="Capa_1-2" data-name="Capa 1"><path class="cls-1" d="M141.82,27A13.3,13.3,0,0,0,154.9,13.5,13.3,13.3,0,0,0,141.82,0H13.08A13.3,13.3,0,0,0,0,13.5,13.3,13.3,0,0,0,13.08,27Z"/><path class="cls-1" d="M141.82,88.5a13.51,13.51,0,0,0,0-27H13.08a13.51,13.51,0,0,0,0,27Z"/><path class="cls-1" d="M141.82,150a13.51,13.51,0,0,0,0-27H13.08a13.51,13.51,0,0,0,0,27Z"/></g></g></svg>