<svg xmlns="http://www.w3.org/2000/svg" viewBox="0 0 191.9 150"><defs><style>.cls-1{fill:#f7f1e3;}</style></defs><title>category</title><g id="Capa_2" data-name="Capa 2"><g id="Capa_1-2" data-name="Capa 1"><g id="Capa_2-2" data-name="Capa 2"><g id="Capa_1-2-2" data-name="Capa 1-2"><path class="cls-1" d="M141.82,27A13.3,13.3,0,0,0,154.9,13.5,13.3,13.3,0,0,0,141.82,0H13.08A13.3,13.3,0,0,0,0,13.5,13.3,13.3,0,0,0,13.08,27Z"/><path class="cls-1" d="M141.82,88.5a13.51,13.51,0,0,0,0-27H13.08a13.51,13.51,0,0,0,0,27Z"/><path class="cls-1" d="M141.82,150a13.51,13.51,0,0,0,0-27H13.08a13.51,13.51,0,0,0,0,27Z"/></g><path class="cls-1" d="M165.82,13.5a13,13,0,1,0,26.08,0C192,6.16,186.64,0,178.82,0S165.82,6,165.82,13.5Z"/><path class="cls-1" d="M165.82,74.5a13,13,0,1,0,26.08,0C192,67.16,186.64,61,178.82,61S165.82,67,165.82,74.5Z"/><path class="cls-1" d="M165.82,135.5a13,13,0,1,0,26.08,0c.11-7.34-5.26-13.5-13.08-13.5S165.82,128,165.82,135.5Z"/></g></g></g></svg>