<svg xmlns="http://www.w3.org/2000/svg" viewBox="0 0 47 35.63"><defs><style>.cls-1{isolation:isolate;}.cls-2{fill:#fff;}.cls-3{fill:#d72b27;}.cls-4{fill:#d54b3d;}.cls-5{fill:#e4e5e6;}.cls-5,.cls-6{mix-blend-mode:multiply;}.cls-6{fill:#eff0f0;}</style></defs><title>GmailEnvelope</title><g class="cls-1"><g id="Capa_2" data-name="Capa 2"><g id="OBJECT"><path class="cls-2" d="M46.72,1.84a3,3,0,0,1-1,3.55L23.54,21.12l0-.06,0,.06L1.3,5.39a3,3,0,0,1-1-3.55A3.11,3.11,0,0,0,0,3.12V32.5a3.12,3.12,0,0,0,3.12,3.12H43.88A3.12,3.12,0,0,0,47,32.5V3.12A3.11,3.11,0,0,0,46.72,1.84Z"/><path class="cls-3" d="M3.12,0A3.12,3.12,0,0,0,0,3.12V32.5a3.12,3.12,0,0,0,3.12,3.12H5.94V0Z"/><path class="cls-4" d="M3.12,35.19A2.69,2.69,0,0,1,.44,32.5V3.12A2.69,2.69,0,0,1,3.12.44H5.5V35.19Z"/><path class="cls-3" d="M43.88,0H41.06V35.63h2.81A3.12,3.12,0,0,0,47,32.5V3.12A3.12,3.12,0,0,0,43.88,0Z"/><path class="cls-4" d="M41.5,35.19V.44h2.38a2.69,2.69,0,0,1,2.69,2.69V32.5a2.69,2.69,0,0,1-2.69,2.69Z"/><path class="cls-3" d="M46.4,1.25a3,3,0,0,0-4.14-.7L23.5,13.86,4.74.55a3,3,0,0,0-4.14.7h0a3,3,0,0,0,.7,4.14L23.46,21.12l0-.06,0,.06L45.7,5.39A3,3,0,0,0,46.4,1.25Z"/><path class="cls-4" d="M23.5,20.31l-.14.2L1.56,5A2.53,2.53,0,1,1,4.49.9l19,13.49L42.51.9A2.53,2.53,0,0,1,45.44,5L23.64,20.51Z"/><path class="cls-2" d="M4.74.55,23.5,13.86,42.26.55A3,3,0,0,1,43.9,0H3.1A3,3,0,0,1,4.74.55Z"/><path class="cls-5" d="M31.52,35.63H43.88A3.12,3.12,0,0,0,47,32.5V3.25h-.07A3,3,0,0,1,45.7,5.39L23.54,21.12l0-.06,0,.06L2,5.92Z"/><polygon class="cls-6" points="23.54 21.12 5.94 35.63 5.94 8.68 23.54 21.12"/></g></g></g></svg>