	<svg xmlns="http://www.w3.org/2000/svg" viewBox="0 0 39.33 39.33"><defs><style>.cls-1{fill:#e4405f;}</style></defs><title>InstagramLogo</title><g id="Capa_2" data-name="Capa 2"><g id="Capa_1-2" data-name="Capa 1"><g id="_Grupo_" data-name="&lt;Grupo&gt;"><path id="_Trazado_compuesto_" data-name="&lt;Trazado compuesto&gt;" class="cls-1" d="M19.66,3.54c5.25,0,5.87,0,7.95.11a10.88,10.88,0,0,1,3.65.68,6.09,6.09,0,0,1,2.26,1.47A6.09,6.09,0,0,1,35,8.07a10.89,10.89,0,0,1,.68,3.65c.09,2.07.11,2.7.11,7.95s0,5.87-.11,7.95A10.88,10.88,0,0,1,35,31.26,6.51,6.51,0,0,1,31.26,35a10.88,10.88,0,0,1-3.65.68c-2.07.09-2.69.11-7.95.11s-5.87,0-7.95-.11A10.87,10.87,0,0,1,8.07,35a6.1,6.1,0,0,1-2.26-1.47,6.09,6.09,0,0,1-1.47-2.26,10.89,10.89,0,0,1-.68-3.65c-.09-2.07-.11-2.7-.11-7.95s0-5.87.11-7.95a10.9,10.9,0,0,1,.68-3.65A6.1,6.1,0,0,1,5.81,5.81,6.09,6.09,0,0,1,8.07,4.34a10.87,10.87,0,0,1,3.65-.68c2.07-.09,2.7-.11,7.95-.11m0-3.54c-5.34,0-6,0-8.11.12A14.44,14.44,0,0,0,6.78,1,9.63,9.63,0,0,0,3.3,3.3,9.63,9.63,0,0,0,1,6.78a14.42,14.42,0,0,0-.91,4.77C0,13.65,0,14.32,0,19.66s0,6,.12,8.11A14.42,14.42,0,0,0,1,32.54,9.63,9.63,0,0,0,3.3,36,9.64,9.64,0,0,0,6.78,38.3a14.44,14.44,0,0,0,4.77.91c2.1.1,2.77.12,8.11.12s6,0,8.11-.12a14.44,14.44,0,0,0,4.77-.91,10.05,10.05,0,0,0,5.75-5.75,14.44,14.44,0,0,0,.91-4.77c.1-2.1.12-2.77.12-8.11s0-6-.12-8.11a14.44,14.44,0,0,0-.91-4.77A9.64,9.64,0,0,0,36,3.3,9.63,9.63,0,0,0,32.54,1,14.44,14.44,0,0,0,27.77.12C25.67,0,25,0,19.66,0"/><path id="_Trazado_compuesto_2" data-name="&lt;Trazado compuesto&gt;" class="cls-1" d="M19.66,9.57a10.1,10.1,0,1,0,10.1,10.1,10.1,10.1,0,0,0-10.1-10.1m0,16.65a6.55,6.55,0,1,1,6.55-6.55,6.55,6.55,0,0,1-6.55,6.55"/><path id="_Trazado_" data-name="&lt;Trazado&gt;" class="cls-1" d="M32.52,9.17a2.36,2.36,0,1,1-2.36-2.36,2.36,2.36,0,0,1,2.36,2.36"/></g></g></g></svg>