<svg xmlns="http://www.w3.org/2000/svg" viewBox="0 0 67.24 59.56"><defs><style>.cls-1{fill:#f7f1e3;}</style></defs><g id="Capa_2" data-name="Capa 2"><g id="Layer_1" data-name="Layer 1"><circle class="cls-1" cx="25.12" cy="53.97" r="5.59"/><circle class="cls-1" cx="49.52" cy="53.97" r="5.59"/><path class="cls-1" d="M63.75,17.74H29.25a2.72,2.72,0,0,0-2,2.7,3.07,3.07,0,0,0,2,2.9H60.19l-1.74,5.88H28a2.54,2.54,0,0,0-1.9,2.51,2.86,2.86,0,0,0,1.9,2.7H56.91l-1.63,5.5H23.89L21.8,23.33l-.68-5.6s-.61-5.17-.95-7.3S14.47,5.6,2.94.17C.23-1-2,4,2.94,6.58L12,10.83s2.11,1.23,2.3,2.88,3.87,29,3.87,29,.15,3.81,3.61,3.81H56.5c2.9,0,3.47-3,3.47-3l6.87-20.42S68.88,17.74,63.75,17.74Z"/></g></g></svg>