<svg xmlns="http://www.w3.org/2000/svg" viewBox="0 0 49.82 49.78"><defs><style>.cls-1{fill:#3f3f3f;}</style></defs><title>PhoneIcon</title><g id="Capa_2" data-name="Capa 2"><g id="Layer_1" data-name="Layer 1"><path class="cls-1" d="M49.79,39.29a2.41,2.41,0,0,1-.74,2.11l-7,7a4,4,0,0,1-1.24.9,5.12,5.12,0,0,1-1.5.47l-.32,0c-.17,0-.4,0-.69,0a24.29,24.29,0,0,1-3.24-.34,24.64,24.64,0,0,1-5.48-1.69,46,46,0,0,1-7.36-4,55,55,0,0,1-8.75-7.38,57.79,57.79,0,0,1-6.12-7,49.66,49.66,0,0,1-3.9-6.14,33.15,33.15,0,0,1-2.21-5.12,27,27,0,0,1-1-4A13,13,0,0,1,0,11.55c0-.63.05-1,.05-1.05A5.12,5.12,0,0,1,.54,9a3.93,3.93,0,0,1,.9-1.24l7-7A2.32,2.32,0,0,1,10.14,0a2,2,0,0,1,1.21.4,3.62,3.62,0,0,1,.9,1l5.64,10.71a2.57,2.57,0,0,1,.26,1.85,3.29,3.29,0,0,1-.9,1.69l-2.58,2.58a.89.89,0,0,0-.18.34,1.28,1.28,0,0,0-.08.4,9.54,9.54,0,0,0,.95,2.53,23.33,23.33,0,0,0,2,3.08,34.11,34.11,0,0,0,3.74,4.19,34.77,34.77,0,0,0,4.22,3.77,24.3,24.3,0,0,0,3.09,2,8.18,8.18,0,0,0,1.9.76l.66.13a1.27,1.27,0,0,0,.34-.08.89.89,0,0,0,.34-.18l3-3.06a3.24,3.24,0,0,1,2.22-.84,2.76,2.76,0,0,1,1.42.32h.05l10.18,6A2.65,2.65,0,0,1,49.79,39.29Z"/></g></g></svg>