<svg xmlns="http://www.w3.org/2000/svg" viewBox="0 0 38.22 31.06"><defs><style>.cls-1{fill:#fff;}</style></defs><title>TwitterLogo</title><g id="Capa_2" data-name="Capa 2"><g id="Capa_1-2" data-name="Capa 1"><path id="_Trazado_" data-name="&lt;Trazado&gt;" class="cls-1" d="M0,27.53a22.19,22.19,0,0,0,12,3.52c14.56,0,22.78-12.3,22.29-23.32a15.91,15.91,0,0,0,3.91-4.06,15.67,15.67,0,0,1-4.5,1.23A7.85,7.85,0,0,0,37.16.57a15.71,15.71,0,0,1-5,1.9A7.85,7.85,0,0,0,18.82,9.63,22.25,22.25,0,0,1,2.66,1.43,7.85,7.85,0,0,0,5.09,11.9a7.81,7.81,0,0,1-3.55-1,7.85,7.85,0,0,0,6.29,7.79,7.85,7.85,0,0,1-3.54.13,7.84,7.84,0,0,0,7.32,5.45A15.76,15.76,0,0,1,0,27.53Z"/></g></g></svg>