<svg xmlns="http://www.w3.org/2000/svg" viewBox="0 0 39.34 39.35"><defs><style>.cls-1{fill:#00e676;fill-rule:evenodd;}</style></defs><title>WhatsappLogo</title><g id="Capa_2" data-name="Capa 2"><g id="Capa_1-2" data-name="Capa 1"><g id="_Grupo_" data-name="&lt;Grupo&gt;"><path id="_Trazado_compuesto_" data-name="&lt;Trazado compuesto&gt;" class="cls-1" d="M39.33,18.68a19.32,19.32,0,0,0-38.6-.35c0,.28,0,.56,0,.84a19,19,0,0,0,2.77,9.9L0,39.35,10.7,36A19.34,19.34,0,0,0,39.34,19.17C39.34,19,39.34,18.84,39.33,18.68ZM20,35.28a16.17,16.17,0,0,1-8.93-2.67l-6.24,2,2-6a16,16,0,0,1-3.09-9.45,15.06,15.06,0,0,1,.08-1.56,16.25,16.25,0,0,1,32.34.31c0,.42.05.83.05,1.26A16.19,16.19,0,0,1,20,35.28Z"/><path id="_Trazado_" data-name="&lt;Trazado&gt;" class="cls-1" d="M28.88,23c-.48-.23-2.8-1.37-3.24-1.53s-.75-.24-1.07.24-1.23,1.53-1.5,1.84-.55.35-1,.12a12.8,12.8,0,0,1-3.81-2.33,14,14,0,0,1-2.63-3.25c-.27-.47,0-.72.21-1s.47-.55.71-.82l.17-.23a5.26,5.26,0,0,0,.3-.56.85.85,0,0,0,0-.82c-.12-.24-1.07-2.55-1.47-3.49s-.79-.78-1.07-.78-.59,0-.9,0a1.75,1.75,0,0,0-1.27.59,5.26,5.26,0,0,0-1.65,3.92,6,6,0,0,0,.24,1.6,10.67,10.67,0,0,0,1.69,3.26c.23.31,3.27,5.21,8.08,7.1s4.82,1.25,5.69,1.17a4.72,4.72,0,0,0,3.19-2.23,3.88,3.88,0,0,0,.28-2.23C29.67,23.39,29.35,23.27,28.88,23Z"/></g></g></g></svg>